# xmcd CD database file
#
# Track frame offsets:
#	183
#	16175
#	26385
#	44555
#	59618
#	71428
#	77448
#	92843
#	106853
#	117520
#	123920
#	134150
#	138713
#	149743
#	156280
#	170978
#	181083
#	191823
#	200585
#	220938
#	234490
#
# Disc length: 3326 seconds
#
# Revision: 0
# Processed by: cddbd v1.5.2PL0 Copyright (c) Steve Scherf et al.
# Submitted via: CDex 1.70beta2
#
DISCID=410cfc15
DTITLE=Country - Country Stars 1 - Live at Church Street Station 
DYEAR=1991
DGENRE=Country
TTITLE0=George Jones - No show Jones
TTITLE1=George Jones - The race is on
TTITLE2=George Jones - Bartender blues
TTITLE3=George Jones - I always get lucky with you
TTITLE4=George Jones - She's my rock
TTITLE5=George Jones - Chicken reel
TTITLE6=George Jones - He stopped loving her today
TTITLE7=George Jones - Who's gonna fill their shoes
TTITLE8=George Jones - The one I loved back then
TTITLE9=Tammy Wynette - Welcome to my world
TTITLE10=Tammy Wynette - Another chance
TTITLE11=Tammy Wynette - Your good girl's gonna go bad
TTITLE12=Tammy Wynette - D.I.V.O.R.C.E.
TTITLE13=Tammy Wynette - Singing my song
TTITLE14=Tammy Wynette - Till I can make it on my own
TTITLE15=Tammy Wynette - Womanhood
TTITLE16=Tammy Wynette - I still believe in fairy tales
TTITLE17=Tammy Wynette - When the grass grow over me
TTITLE18=Tammy Wynette - Amazing grace/I'll fly away/Will the circle be unbroken/I saw the light
TTITLE19=Tammy Wynette - Stand by your man
TTITLE20=Tammy Wynette - Cryin' in the rain
EXTD=YEAR: 1991
EXTT0=
EXTT1=
EXTT2=
EXTT3=
EXTT4=
EXTT5=
EXTT6=
EXTT7=
EXTT8=
EXTT9=
EXTT10=
EXTT11=
EXTT12=
EXTT13=
EXTT14=
EXTT15=
EXTT16=
EXTT17=
EXTT18=
EXTT19=
EXTT20=
PLAYORDER=
